<mxfile host="app.diagrams.net" modified="2023-04-25T08:35:40.342Z" agent="Mozilla/5.0 (Macintosh; Intel Mac OS X 10_15_7) AppleWebKit/537.36 (KHTML, like Gecko) Chrome/112.0.0.0 Safari/537.36" etag="1lGFu7VdZdO6zWaaZmzX" version="21.2.1" type="github">
  <diagram name="Page-1" id="2YBvvXClWsGukQMizWep">
    <mxGraphModel dx="1244" dy="660" grid="1" gridSize="10" guides="1" tooltips="1" connect="1" arrows="1" fold="1" page="1" pageScale="1" pageWidth="850" pageHeight="1100" math="0" shadow="0">
      <root>
        <mxCell id="0" />
        <mxCell id="1" parent="0" />
        <mxCell id="aM9ryv3xv72pqoxQDRHE-1" value="API@SAP &lt;br&gt;User" style="shape=umlLifeline;perimeter=lifelinePerimeter;whiteSpace=wrap;html=1;container=0;dropTarget=0;collapsible=0;recursiveResize=0;outlineConnect=0;portConstraint=eastwest;newEdgeStyle={&quot;edgeStyle&quot;:&quot;elbowEdgeStyle&quot;,&quot;elbow&quot;:&quot;vertical&quot;,&quot;curved&quot;:0,&quot;rounded&quot;:0};" parent="1" vertex="1">
          <mxGeometry x="40" y="119" width="100" height="720" as="geometry" />
        </mxCell>
        <mxCell id="aM9ryv3xv72pqoxQDRHE-2" value="" style="html=1;points=[];perimeter=orthogonalPerimeter;outlineConnect=0;targetShapes=umlLifeline;portConstraint=eastwest;newEdgeStyle={&quot;edgeStyle&quot;:&quot;elbowEdgeStyle&quot;,&quot;elbow&quot;:&quot;vertical&quot;,&quot;curved&quot;:0,&quot;rounded&quot;:0};" parent="aM9ryv3xv72pqoxQDRHE-1" vertex="1">
          <mxGeometry x="45" y="70" width="10" height="610" as="geometry" />
        </mxCell>
        <mxCell id="aM9ryv3xv72pqoxQDRHE-3" value="login" style="html=1;verticalAlign=bottom;startArrow=oval;endArrow=block;startSize=8;edgeStyle=elbowEdgeStyle;elbow=vertical;curved=0;rounded=0;" parent="aM9ryv3xv72pqoxQDRHE-1" target="aM9ryv3xv72pqoxQDRHE-2" edge="1">
          <mxGeometry relative="1" as="geometry">
            <mxPoint x="-15" y="70" as="sourcePoint" />
          </mxGeometry>
        </mxCell>
        <mxCell id="aM9ryv3xv72pqoxQDRHE-5" value="API@SAP&lt;br&gt;(Kong Gateway)" style="shape=umlLifeline;perimeter=lifelinePerimeter;whiteSpace=wrap;html=1;container=0;dropTarget=0;collapsible=0;recursiveResize=0;outlineConnect=0;portConstraint=eastwest;newEdgeStyle={&quot;edgeStyle&quot;:&quot;elbowEdgeStyle&quot;,&quot;elbow&quot;:&quot;vertical&quot;,&quot;curved&quot;:0,&quot;rounded&quot;:0};" parent="1" vertex="1">
          <mxGeometry x="190" y="119" width="100" height="720" as="geometry" />
        </mxCell>
        <mxCell id="aM9ryv3xv72pqoxQDRHE-6" value="" style="html=1;points=[];perimeter=orthogonalPerimeter;outlineConnect=0;targetShapes=umlLifeline;portConstraint=eastwest;newEdgeStyle={&quot;edgeStyle&quot;:&quot;elbowEdgeStyle&quot;,&quot;elbow&quot;:&quot;vertical&quot;,&quot;curved&quot;:0,&quot;rounded&quot;:0};" parent="aM9ryv3xv72pqoxQDRHE-5" vertex="1">
          <mxGeometry x="45" y="150" width="10" height="530" as="geometry" />
        </mxCell>
        <mxCell id="aM9ryv3xv72pqoxQDRHE-7" value="Access Self Service Token retrieval page request to /login" style="html=1;verticalAlign=bottom;endArrow=block;edgeStyle=elbowEdgeStyle;elbow=vertical;curved=0;rounded=0;" parent="1" target="XsU5lfdXcksKyY_UCjnN-16" edge="1">
          <mxGeometry x="-0.4832" relative="1" as="geometry">
            <mxPoint x="95" y="225" as="sourcePoint" />
            <Array as="points">
              <mxPoint x="620" y="229" />
              <mxPoint x="180" y="225" />
            </Array>
            <mxPoint x="235" y="225" as="targetPoint" />
            <mxPoint as="offset" />
          </mxGeometry>
        </mxCell>
        <mxCell id="XsU5lfdXcksKyY_UCjnN-1" value="GAS OIDC" style="shape=umlLifeline;perimeter=lifelinePerimeter;whiteSpace=wrap;html=1;container=0;dropTarget=0;collapsible=0;recursiveResize=0;outlineConnect=0;portConstraint=eastwest;newEdgeStyle={&quot;edgeStyle&quot;:&quot;elbowEdgeStyle&quot;,&quot;elbow&quot;:&quot;vertical&quot;,&quot;curved&quot;:0,&quot;rounded&quot;:0};" vertex="1" parent="1">
          <mxGeometry x="550" y="119" width="100" height="720" as="geometry" />
        </mxCell>
        <mxCell id="XsU5lfdXcksKyY_UCjnN-2" value="" style="html=1;points=[];perimeter=orthogonalPerimeter;outlineConnect=0;targetShapes=umlLifeline;portConstraint=eastwest;newEdgeStyle={&quot;edgeStyle&quot;:&quot;elbowEdgeStyle&quot;,&quot;elbow&quot;:&quot;vertical&quot;,&quot;curved&quot;:0,&quot;rounded&quot;:0};" vertex="1" parent="XsU5lfdXcksKyY_UCjnN-1">
          <mxGeometry x="45" y="210" width="10" height="470" as="geometry" />
        </mxCell>
        <mxCell id="XsU5lfdXcksKyY_UCjnN-8" value="" style="html=1;points=[];perimeter=orthogonalPerimeter;outlineConnect=0;targetShapes=umlLifeline;portConstraint=eastwest;newEdgeStyle={&quot;edgeStyle&quot;:&quot;elbowEdgeStyle&quot;,&quot;elbow&quot;:&quot;vertical&quot;,&quot;curved&quot;:0,&quot;rounded&quot;:0};" vertex="1" parent="XsU5lfdXcksKyY_UCjnN-1">
          <mxGeometry x="50" y="456" width="10" height="60" as="geometry" />
        </mxCell>
        <mxCell id="XsU5lfdXcksKyY_UCjnN-9" value="Validate Authorization Code + Client ID + Client Secret" style="html=1;align=left;spacingLeft=2;endArrow=block;rounded=0;edgeStyle=orthogonalEdgeStyle;curved=0;rounded=0;" edge="1" target="XsU5lfdXcksKyY_UCjnN-8" parent="XsU5lfdXcksKyY_UCjnN-1" source="XsU5lfdXcksKyY_UCjnN-8">
          <mxGeometry x="1" y="-291" relative="1" as="geometry">
            <mxPoint x="55" y="466" as="sourcePoint" />
            <Array as="points">
              <mxPoint x="85" y="466" />
              <mxPoint x="85" y="506" />
            </Array>
            <mxPoint x="-290" y="271" as="offset" />
          </mxGeometry>
        </mxCell>
        <mxCell id="XsU5lfdXcksKyY_UCjnN-3" value="Authorization Code Request to /authorize" style="html=1;verticalAlign=bottom;endArrow=block;edgeStyle=elbowEdgeStyle;elbow=vertical;curved=0;rounded=0;" edge="1" parent="1">
          <mxGeometry x="-0.3429" relative="1" as="geometry">
            <mxPoint x="245" y="335" as="sourcePoint" />
            <Array as="points">
              <mxPoint x="365" y="335" />
            </Array>
            <mxPoint x="595" y="335" as="targetPoint" />
            <mxPoint as="offset" />
          </mxGeometry>
        </mxCell>
        <mxCell id="XsU5lfdXcksKyY_UCjnN-4" value="Redirect to sso login with authorization prompt" style="html=1;verticalAlign=bottom;endArrow=block;edgeStyle=elbowEdgeStyle;elbow=vertical;curved=0;rounded=0;" edge="1" parent="1">
          <mxGeometry x="-0.42" relative="1" as="geometry">
            <mxPoint x="595" y="385" as="sourcePoint" />
            <Array as="points">
              <mxPoint x="400" y="385" />
              <mxPoint x="360" y="365" />
              <mxPoint x="90" y="365" />
              <mxPoint x="370" y="365" />
              <mxPoint x="220" y="425" />
              <mxPoint x="240" y="395" />
              <mxPoint x="200" y="365" />
            </Array>
            <mxPoint x="95" y="385" as="targetPoint" />
            <mxPoint as="offset" />
          </mxGeometry>
        </mxCell>
        <mxCell id="XsU5lfdXcksKyY_UCjnN-5" value="Authentication and consent" style="html=1;verticalAlign=bottom;endArrow=block;edgeStyle=elbowEdgeStyle;elbow=vertical;curved=0;rounded=0;" edge="1" parent="1">
          <mxGeometry x="-0.66" relative="1" as="geometry">
            <mxPoint x="95" y="435" as="sourcePoint" />
            <Array as="points">
              <mxPoint x="410" y="435" />
              <mxPoint x="190" y="425" />
            </Array>
            <mxPoint x="595" y="435" as="targetPoint" />
            <mxPoint as="offset" />
          </mxGeometry>
        </mxCell>
        <mxCell id="XsU5lfdXcksKyY_UCjnN-6" value="Authorization Code" style="html=1;verticalAlign=bottom;endArrow=block;edgeStyle=elbowEdgeStyle;elbow=vertical;curved=0;rounded=0;" edge="1" parent="1">
          <mxGeometry x="-0.6286" relative="1" as="geometry">
            <mxPoint x="595" y="495" as="sourcePoint" />
            <Array as="points">
              <mxPoint x="395" y="495" />
              <mxPoint x="355" y="475" />
              <mxPoint x="85" y="475" />
              <mxPoint x="365" y="475" />
              <mxPoint x="215" y="535" />
              <mxPoint x="235" y="505" />
              <mxPoint x="195" y="475" />
            </Array>
            <mxPoint x="245" y="495" as="targetPoint" />
            <mxPoint as="offset" />
          </mxGeometry>
        </mxCell>
        <mxCell id="XsU5lfdXcksKyY_UCjnN-7" value="Authorization Code + Client ID + Client Secret to /token" style="html=1;verticalAlign=bottom;endArrow=block;edgeStyle=elbowEdgeStyle;elbow=vertical;curved=0;rounded=0;" edge="1" parent="1">
          <mxGeometry x="-0.1714" relative="1" as="geometry">
            <mxPoint x="245" y="549" as="sourcePoint" />
            <Array as="points">
              <mxPoint x="370" y="549" />
            </Array>
            <mxPoint x="595" y="549" as="targetPoint" />
            <mxPoint as="offset" />
          </mxGeometry>
        </mxCell>
        <mxCell id="XsU5lfdXcksKyY_UCjnN-10" value="Generate a new ID token and Access Token" style="html=1;verticalAlign=bottom;endArrow=block;edgeStyle=elbowEdgeStyle;elbow=vertical;curved=0;rounded=0;" edge="1" parent="1" source="XsU5lfdXcksKyY_UCjnN-2">
          <mxGeometry x="-0.2571" relative="1" as="geometry">
            <mxPoint x="600" y="689" as="sourcePoint" />
            <Array as="points">
              <mxPoint x="395" y="689" />
              <mxPoint x="355" y="669" />
              <mxPoint x="85" y="669" />
              <mxPoint x="365" y="669" />
              <mxPoint x="215" y="729" />
              <mxPoint x="235" y="699" />
              <mxPoint x="195" y="669" />
            </Array>
            <mxPoint x="250" y="689" as="targetPoint" />
            <mxPoint as="offset" />
          </mxGeometry>
        </mxCell>
        <mxCell id="XsU5lfdXcksKyY_UCjnN-11" value="Display Generated Token" style="html=1;verticalAlign=bottom;endArrow=block;edgeStyle=elbowEdgeStyle;elbow=vertical;curved=0;rounded=0;" edge="1" parent="1">
          <mxGeometry x="-0.5596" relative="1" as="geometry">
            <mxPoint x="245" y="694" as="sourcePoint" />
            <Array as="points">
              <mxPoint x="450" y="739" />
              <mxPoint x="375" y="694" />
            </Array>
            <mxPoint x="745" y="739" as="targetPoint" />
            <mxPoint as="offset" />
          </mxGeometry>
        </mxCell>
        <mxCell id="XsU5lfdXcksKyY_UCjnN-12" value="API@SAP&lt;br&gt;App" style="shape=umlLifeline;perimeter=lifelinePerimeter;whiteSpace=wrap;html=1;container=0;dropTarget=0;collapsible=0;recursiveResize=0;outlineConnect=0;portConstraint=eastwest;newEdgeStyle={&quot;edgeStyle&quot;:&quot;elbowEdgeStyle&quot;,&quot;elbow&quot;:&quot;vertical&quot;,&quot;curved&quot;:0,&quot;rounded&quot;:0};" vertex="1" parent="1">
          <mxGeometry x="700" y="119" width="100" height="720" as="geometry" />
        </mxCell>
        <mxCell id="XsU5lfdXcksKyY_UCjnN-16" value="" style="html=1;points=[];perimeter=orthogonalPerimeter;outlineConnect=0;targetShapes=umlLifeline;portConstraint=eastwest;newEdgeStyle={&quot;edgeStyle&quot;:&quot;elbowEdgeStyle&quot;,&quot;elbow&quot;:&quot;vertical&quot;,&quot;curved&quot;:0,&quot;rounded&quot;:0};" vertex="1" parent="XsU5lfdXcksKyY_UCjnN-12">
          <mxGeometry x="45" y="110" width="10" height="570" as="geometry" />
        </mxCell>
        <mxCell id="XsU5lfdXcksKyY_UCjnN-17" value="Redirect to sso login with authorization prompt" style="html=1;verticalAlign=bottom;endArrow=block;edgeStyle=elbowEdgeStyle;elbow=vertical;curved=0;rounded=0;" edge="1" parent="1" source="XsU5lfdXcksKyY_UCjnN-16" target="aM9ryv3xv72pqoxQDRHE-6">
          <mxGeometry x="-0.5" relative="1" as="geometry">
            <mxPoint x="740" y="269" as="sourcePoint" />
            <Array as="points">
              <mxPoint x="545" y="269" />
              <mxPoint x="505" y="249" />
              <mxPoint x="235" y="249" />
              <mxPoint x="515" y="249" />
              <mxPoint x="365" y="309" />
              <mxPoint x="385" y="279" />
              <mxPoint x="345" y="249" />
            </Array>
            <mxPoint x="240" y="269" as="targetPoint" />
            <mxPoint as="offset" />
          </mxGeometry>
        </mxCell>
      </root>
    </mxGraphModel>
  </diagram>
</mxfile>
